<svg width="172" height="166" viewBox="0 0 172 166" fill="none" xmlns="http://www.w3.org/2000/svg">
<path d="M167.02 27.4857L87.8955 1.11066C86.5528 0.69749 85.117 0.69749 83.7744 1.11066L4.73178 27.4857H4.56693L3.74272 27.8978H3.66029L2.83607 28.3923C2.83607 28.4747 2.75365 28.4747 2.67123 28.5571L2.01186 29.1341L1.4349 29.7935C1.4349 29.8759 1.35248 29.8759 1.35248 29.9583L0.857949 30.7001C0.857949 30.7825 0.857949 30.7825 0.775527 30.865L0.44584 31.6068L0.198575 32.5134V32.7607C0.117277 33.0836 0.089434 33.4177 0.116152 33.7497V99.6872C0.116152 101.436 0.810849 103.113 2.04742 104.35C3.28398 105.586 4.96113 106.281 6.7099 106.281C8.45867 106.281 10.1358 105.586 11.3724 104.35C12.609 103.113 13.3037 101.436 13.3037 99.6872V42.8985L40.9974 52.1298C35.7946 60.4577 33.0517 70.0865 33.0849 79.906C33.0879 88.8364 35.3582 97.6199 39.683 105.433C44.0078 113.247 50.2454 119.834 57.8115 124.579C42.0887 130.527 28.6659 141.322 19.4853 155.404C18.5495 156.884 18.2325 158.672 18.6025 160.384C18.9725 162.095 19.9999 163.592 21.4634 164.553C22.1816 165.029 22.9871 165.358 23.8332 165.52C24.6793 165.682 25.5492 165.675 26.3925 165.499C27.2358 165.322 28.0357 164.98 28.7459 164.493C29.4561 164.005 30.0625 163.381 30.5298 162.658C36.5147 153.439 44.7092 145.862 54.368 140.617C64.0269 135.372 74.8437 132.624 85.8349 132.624C96.8261 132.624 107.643 135.372 117.302 140.617C126.961 145.862 135.155 153.439 141.14 162.658C141.742 163.572 142.562 164.321 143.526 164.839C144.49 165.357 145.568 165.627 146.662 165.625C147.925 165.638 149.162 165.264 150.206 164.553C151.67 163.592 152.697 162.095 153.067 160.384C153.437 158.672 153.12 156.884 152.185 155.404C143.004 141.322 129.581 130.527 113.858 124.579C121.424 119.834 127.662 113.247 131.987 105.433C136.312 97.6199 138.582 88.8364 138.585 79.906C138.618 70.0865 135.875 60.4577 130.672 52.1298L167.02 40.0138C168.34 39.5802 169.488 38.7412 170.303 37.6164C171.117 36.4915 171.555 35.1384 171.555 33.7497C171.555 32.3611 171.117 31.0079 170.303 29.8831C169.488 28.7583 168.34 27.9193 167.02 27.4857ZM85.8349 119.468C75.3423 119.468 65.2794 115.3 57.86 107.881C50.4406 100.461 46.2724 90.3986 46.2724 79.906C46.2883 71.4638 48.9711 63.2424 53.9376 56.4157L83.7744 66.3888C85.1128 66.8291 86.557 66.8291 87.8955 66.3888L117.732 56.4157C122.699 63.2424 125.382 71.4638 125.397 79.906C125.397 90.3986 121.229 100.461 113.81 107.881C106.39 115.3 96.3275 119.468 85.8349 119.468Z" fill="black" fill-opacity="0.5"/>
</svg>