<svg width="164" height="33" viewBox="0 0 164 33" fill="none" xmlns="http://www.w3.org/2000/svg">
<g clip-path="url(#clip0_5902_10978)">
<path d="M40.2729 26.3524V8.66016H42.9731V24.2302H51.0753V26.3524H40.2729Z" fill="#0EAA4F"/>
<path d="M57.7261 26.6561C56.572 26.6771 55.4331 26.3933 54.426 25.8339C53.4751 25.2949 52.6956 24.5023 52.1759 23.5461C51.6144 22.497 51.3335 21.3225 51.3602 20.1349C51.3332 18.9322 51.609 17.7419 52.1627 16.6716C52.6762 15.7012 53.4564 14.8951 54.4128 14.3466C55.4304 13.7762 56.5838 13.4877 57.7524 13.5115C58.8863 13.4848 60.0056 13.7693 60.9869 14.3336C61.884 14.8609 62.6232 15.6159 63.1282 16.521C63.6395 17.4415 63.9024 18.4776 63.8914 19.5286C63.8914 19.696 63.8914 19.8782 63.8801 20.0717C63.8689 20.2651 63.8576 20.479 63.8407 20.7152H54.0022C54.0872 21.928 54.4903 22.8505 55.2116 23.4829C55.898 24.1019 56.7948 24.4408 57.7224 24.4315C58.4017 24.4546 59.0722 24.2738 59.6462 23.9126C60.1655 23.5675 60.5701 23.0776 60.8087 22.5046H63.5107C63.1722 23.6804 62.4616 24.7172 61.4838 25.4619C60.4737 26.258 59.2212 26.6561 57.7261 26.6561ZM57.7261 15.7119C56.86 15.6998 56.0155 15.9805 55.3316 16.5079C54.6341 17.0374 54.2091 17.8335 54.0566 18.8962H61.1819C61.1319 17.9203 60.7837 17.1453 60.1375 16.5712C59.4721 15.9926 58.6105 15.6856 57.7261 15.7119Z" fill="#0EAA4F"/>
<path d="M69.4474 26.6566C68.3773 26.6566 67.4941 26.4793 66.7979 26.1247C66.1527 25.818 65.6123 25.3304 65.2434 24.7223C64.9033 24.1433 64.727 23.484 64.7334 22.8139C64.7143 22.2543 64.8345 21.6987 65.0834 21.1962C65.3323 20.6937 65.7022 20.2598 66.1603 19.9328C67.1116 19.226 68.4704 18.872 70.2368 18.8707H73.55V18.6438C73.55 17.6679 73.2819 16.9351 72.7456 16.4453C72.1756 15.9434 71.4314 15.6806 70.6699 15.7124C69.9798 15.696 69.3005 15.8852 68.7198 16.2556C68.4468 16.4355 68.2158 16.6713 68.0424 16.9472C67.8691 17.2232 67.7573 17.5328 67.7148 17.8552H65.0128C65.0786 16.9994 65.4056 16.1839 65.9503 15.5171C66.4963 14.8627 67.1963 14.3516 67.9885 14.0292C68.8451 13.6785 69.764 13.5027 70.6905 13.5121C72.4569 13.5121 73.8238 13.9715 74.7913 14.8903C75.7589 15.8092 76.2433 17.0603 76.2445 18.6438V26.3516H73.9007L73.67 24.2033C73.3065 24.9037 72.773 25.5033 72.1175 25.948C71.4412 26.4204 70.5512 26.6566 69.4474 26.6566ZM69.9818 24.4823C70.6368 24.5039 71.2824 24.3225 71.8287 23.9634C72.3341 23.6142 72.7382 23.1396 73.0006 22.587C73.2881 21.9914 73.4653 21.3494 73.5238 20.6916H70.5237C69.4549 20.6916 68.6948 20.8776 68.2436 21.2496C68.0305 21.4138 67.8586 21.6246 67.7415 21.8657C67.6244 22.1068 67.5652 22.3715 67.5685 22.6391C67.5584 22.8999 67.6124 23.1592 67.7257 23.3948C67.839 23.6303 68.0084 23.835 68.2192 23.9913C68.648 24.3199 69.2355 24.4836 69.9818 24.4823Z" fill="#0EAA4F"/>
<path d="M77.8794 26.3516V13.8171H80.3001L80.5308 16.1924C80.9549 15.3847 81.5935 14.7074 82.3777 14.2338C83.2468 13.7326 84.2399 13.4826 85.2447 13.5121V16.3188H84.5041C83.8194 16.3092 83.1398 16.4357 82.5052 16.6908C81.913 16.9394 81.42 17.3748 81.1027 17.9296C80.7564 18.5099 80.5826 19.3159 80.5814 20.3476V26.3628L77.8794 26.3516Z" fill="#0EAA4F"/>
<path d="M86.0342 26.4283V13.8939H88.4287L88.633 16.0924C89.0132 15.328 89.611 14.691 90.3525 14.2603C91.1448 13.8035 92.0483 13.5713 92.9645 13.5888C94.4921 13.5888 95.6934 14.0606 96.5684 15.0043C97.4434 15.9479 97.8809 17.3553 97.8809 19.2265V26.4283H95.2071V19.5036C95.2071 17.0782 94.207 15.8648 92.207 15.8636C91.74 15.8517 91.276 15.9405 90.8471 16.1239C90.4181 16.3073 90.0344 16.5808 89.7225 16.9256C89.0687 17.6349 88.7418 18.6461 88.7418 19.9593V26.4283H86.0342Z" fill="#0EAA4F"/>
<path d="M111.054 31.9137V13.8179H113.474L113.756 15.7634C114.206 15.1336 114.78 14.6004 115.443 14.1954C116.156 13.7416 117.073 13.5141 118.194 13.5128C119.333 13.4911 120.455 13.789 121.43 14.3721C122.364 14.9459 123.125 15.7579 123.634 16.7232C124.181 17.7682 124.457 18.9325 124.436 20.1102C124.459 21.2839 124.183 22.4443 123.634 23.4843C123.125 24.4428 122.363 25.2464 121.43 25.8092C120.445 26.3884 119.315 26.6822 118.17 26.6574C117.264 26.6751 116.368 26.4754 115.558 26.0752C114.818 25.7025 114.196 25.1341 113.761 24.4328V31.9137H111.054ZM117.705 24.3305C118.239 24.3479 118.77 24.2523 119.264 24.0499C119.758 23.8475 120.202 23.5431 120.568 23.1569C121.318 22.372 121.693 21.3484 121.693 20.086C121.707 19.3222 121.532 18.5666 121.183 17.8857C120.861 17.2537 120.363 16.7257 119.75 16.3634C119.136 16.0011 118.432 15.8195 117.718 15.8397C117.186 15.8234 116.657 15.921 116.167 16.1257C115.677 16.3305 115.237 16.6377 114.877 17.0264C114.138 17.8187 113.769 18.8386 113.769 20.086C113.769 21.3335 114.138 22.3571 114.877 23.1569C115.237 23.5407 115.676 23.844 116.163 24.0464C116.651 24.2487 117.176 24.3456 117.705 24.3305Z" fill="#0EAA4F"/>
<path d="M130.113 26.6566C129.043 26.6566 128.16 26.4793 127.462 26.1247C126.817 25.8169 126.277 25.3296 125.908 24.7222C125.569 24.1428 125.393 23.4837 125.399 22.8139C125.38 22.2543 125.501 21.6987 125.749 21.1962C125.998 20.6937 126.368 20.2597 126.826 19.9328C127.778 19.226 129.136 18.8719 130.903 18.8707H134.214V18.6438C134.214 17.6679 133.947 16.9351 133.412 16.4453C132.842 15.9433 132.097 15.6806 131.336 15.7124C130.644 15.6948 129.962 15.8841 129.38 16.2555C129.108 16.436 128.878 16.6721 128.706 16.948C128.534 17.2239 128.423 17.5332 128.381 17.8551H125.679C125.744 16.9992 126.071 16.1835 126.616 15.5171C127.162 14.8626 127.862 14.3516 128.655 14.0291C129.514 13.6764 130.437 13.4998 131.368 13.5102C133.137 13.5102 134.504 13.9696 135.47 14.8885C136.437 15.8073 136.921 17.0584 136.924 18.6419V26.3497H134.58L134.349 24.2014C133.986 24.9023 133.451 25.502 132.795 25.9461C132.111 26.4198 131.217 26.6566 130.113 26.6566ZM130.648 24.4823C131.303 24.5039 131.948 24.3225 132.495 23.9634C133 23.6142 133.404 23.1396 133.667 22.587C133.953 21.9911 134.13 21.3492 134.19 20.6916H131.19C130.121 20.6916 129.361 20.8776 128.91 21.2496C128.696 21.4137 128.525 21.6246 128.408 21.8657C128.29 22.1067 128.231 22.3715 128.235 22.639C128.224 22.8999 128.278 23.1594 128.391 23.3951C128.504 23.6307 128.674 23.8354 128.885 23.9913C129.314 24.3199 129.901 24.4835 130.648 24.4823Z" fill="#0EAA4F"/>
<path d="M144.535 26.6573C143.371 26.6764 142.223 26.3882 141.209 25.8221C140.243 25.2769 139.449 24.4766 138.915 23.5102C138.348 22.4587 138.063 21.2801 138.089 20.0878C138.063 18.8942 138.348 17.7143 138.915 16.6617C139.449 15.6953 140.243 14.8949 141.209 14.3497C142.223 13.7836 143.371 13.4954 144.535 13.5146C146.096 13.5146 147.409 13.9194 148.473 14.7291C149.536 15.5407 150.265 16.7082 150.524 18.0139H147.695C147.543 17.3516 147.14 16.7727 146.569 16.3976C145.994 16.0324 145.328 15.8308 144.644 15.8148C143.961 15.7987 143.286 15.9687 142.694 16.3064C142.117 16.6524 141.649 17.1518 141.344 17.7479C140.984 18.4748 140.811 19.2785 140.839 20.0878C140.813 20.8963 140.988 21.6987 141.349 22.4239C141.657 23.0222 142.124 23.5253 142.699 23.8784C143.252 24.2133 143.888 24.3885 144.535 24.3844C145.258 24.4017 145.969 24.2006 146.573 23.8078C147.149 23.4257 147.552 22.8369 147.698 22.1654H150.526C150.27 23.4623 149.545 24.6217 148.488 25.426C147.415 26.2468 146.098 26.6573 144.535 26.6573Z" fill="#0EAA4F"/>
<path d="M157.835 26.6561C156.68 26.6774 155.541 26.3936 154.534 25.834C153.584 25.2949 152.804 24.5024 152.284 23.5462C151.722 22.4973 151.441 21.3226 151.469 20.135C151.442 18.9323 151.717 17.7419 152.271 16.6716C152.785 15.7015 153.565 14.8954 154.521 14.3467C155.542 13.7747 156.7 13.4862 157.872 13.5115C159.007 13.4846 160.127 13.7691 161.108 14.3336C162.006 14.8609 162.745 15.616 163.25 16.521C163.757 17.4428 164.015 18.4787 164 19.5286C164 19.696 164 19.8783 163.987 20.0717C163.974 20.2652 163.966 20.479 163.949 20.7153H154.114C154.199 21.928 154.603 22.8505 155.324 23.4829C156.01 24.102 156.907 24.4408 157.835 24.4315C158.513 24.4543 159.183 24.2734 159.757 23.9126C160.274 23.5685 160.677 23.0806 160.915 22.5102H163.615C163.278 23.6862 162.568 24.7232 161.59 25.4676C160.582 26.2599 159.33 26.6561 157.835 26.6561ZM157.835 15.7119C156.97 15.7014 156.127 15.982 155.444 16.508C154.748 17.0374 154.323 17.8335 154.171 18.8962H161.305C161.255 17.9203 160.907 17.1453 160.261 16.5712C159.592 15.9891 158.724 15.6818 157.835 15.7119Z" fill="#0EAA4F"/>
<path d="M28.3904 24.2727C26.431 27.9741 21.9026 29.795 17.9631 30.5316C17.5318 30.6122 17.0943 30.6779 16.6505 30.7287C16.6727 30.6405 16.6841 30.55 16.6843 30.459V16.829C20.6388 19.247 26.3035 19.247 29.0223 15.0341C30.1324 13.3173 30.5224 11.0463 29.6655 9.14352C29.0186 7.69644 27.6554 7.80804 26.3166 8.06286C25.2055 8.2775 24.117 8.59445 23.0652 9.0096C20.6951 9.94011 18.5294 11.3178 16.688 13.0662V9.12306C16.688 7.75782 14.5505 7.75596 14.5505 9.12306V15.674C13.3884 14.2193 12.0394 12.9218 10.5378 11.8145C9.53162 11.0688 8.45535 10.421 7.3239 9.88008C6.16135 9.32208 4.58816 8.55762 3.61875 9.86148C2.92122 10.7915 2.63621 12.1195 2.51245 13.2578C2.38938 14.4188 2.49121 15.5925 2.81246 16.7156C3.12847 17.8454 3.67229 18.8998 4.41099 19.8151C5.1497 20.7305 6.06794 21.4876 7.11014 22.0407C9.37711 23.2199 12.1447 23.4729 14.5542 22.5727V30.459C14.5539 30.5972 14.5799 30.7342 14.6311 30.8627C11.7735 30.8999 8.89334 30.2898 6.44449 28.8167C4.45691 27.6226 2.62496 25.8295 2.09243 23.5194C1.78492 22.1895 -0.275792 22.7531 0.0298458 24.0774C1.10239 28.7274 6.04322 31.7034 10.4628 32.5813C15.0586 33.4983 19.9113 32.7301 24.1209 30.7306C26.6128 29.5476 28.9286 27.7993 30.2336 25.3366C30.8749 24.1369 29.0317 23.0637 28.3904 24.2727ZM22.3508 11.6415C23.9484 10.8343 25.8403 10.1275 27.6423 9.98796C27.6696 9.98697 27.6967 9.98259 27.7229 9.97494V9.98796C27.826 10.0996 27.8541 10.36 27.8916 10.5143C27.9794 10.8751 28.0123 11.2469 27.9891 11.6173C27.9452 12.3229 27.7379 13.009 27.3835 13.6224C26.9916 14.3164 26.4492 14.9153 25.7955 15.3759C25.1417 15.8366 24.393 16.1474 23.6033 16.2859C21.5933 16.6821 19.4782 16.0404 17.7625 14.9988L17.7343 14.9858C17.7779 14.9538 17.8199 14.9197 17.86 14.8835C19.1724 13.5715 20.6887 12.4769 22.3508 11.6415ZM14.2129 20.4597C10.8266 21.838 6.71263 20.4597 5.19756 17.0615C4.47652 15.4179 4.40556 13.5653 4.99881 11.8721C5.05879 11.7004 5.12827 11.5322 5.20694 11.3681C5.21631 11.3495 5.22944 11.3272 5.24257 11.3067C5.3682 11.3681 5.69071 11.4611 5.76196 11.4927C6.03385 11.6136 6.30386 11.7419 6.57012 11.8647C7.47739 12.3206 8.3481 12.8448 9.17461 13.4327C11.0173 14.7565 12.5982 16.406 13.8379 18.2984C13.9152 18.4247 14.0194 18.5327 14.1431 18.6149C14.2668 18.6972 14.4071 18.7516 14.5542 18.7746V20.4039C14.4377 20.3964 14.3209 20.4155 14.2129 20.4597Z" fill="#0EAA4F"/>
<path d="M5.3196 6.69538C5.85775 7.0153 6.44465 6.7735 6.78216 6.31408C8.72099 3.68963 12.0174 2.2221 15.2519 2.13282C17.095 2.09352 18.9284 2.40935 20.6502 3.06281C21.4732 3.36887 22.2691 3.74215 23.0297 4.17881C23.4479 4.41875 23.8679 4.66799 24.2616 4.94699C24.421 5.06045 24.5448 5.19065 24.6948 5.31899C24.7227 5.33973 24.7462 5.36562 24.7642 5.39525C24.7741 5.37042 24.7866 5.34672 24.8017 5.32457C24.7867 5.34875 24.7773 5.37107 24.7642 5.39525C24.811 5.47523 24.7285 5.49569 24.7642 5.39525C24.1473 6.5224 25.9267 7.5175 26.6392 6.3922C28.0287 4.22159 24.5298 2.51598 23.0278 1.78872C20.906 0.737228 18.5881 0.13186 16.2194 0.0105654C11.8486 -0.175434 7.53594 1.71804 4.93709 5.23715C4.59207 5.70214 4.86208 6.41452 5.3196 6.69538Z" fill="#0EAA4F"/>
<path d="M104.93 26.4282C103.329 26.4282 102.01 25.9058 100.973 24.8609C100.472 24.3762 100.054 23.7561 99.7462 23.0411C99.4382 22.3261 99.2472 21.5325 99.1855 20.7122H101.918C102.06 21.5074 102.402 22.214 102.887 22.7152C103.398 23.271 104.07 23.5481 104.904 23.5464C105.737 23.5447 106.333 23.3186 106.692 22.8679C106.866 22.6771 107.006 22.4383 107.103 22.1681C107.201 21.8979 107.253 21.6028 107.256 21.3031C107.256 20.4393 106.995 19.8559 106.476 19.5505C105.781 19.175 105.058 18.8956 104.319 18.7167C103.595 18.5091 102.883 18.2364 102.186 17.9005C101.526 17.5984 100.925 17.1041 100.426 16.4534C99.9522 15.8224 99.7154 14.9737 99.7154 13.9071C99.7068 13.2038 99.817 12.507 100.038 11.8681C100.259 11.2293 100.585 10.6649 100.991 10.2166C101.842 9.22844 103.032 8.73438 104.562 8.73438C105.975 8.73438 107.119 9.18838 107.995 10.0964C108.87 11.0044 109.386 12.2863 109.541 13.9421H106.948C106.916 13.6053 106.833 13.2806 106.703 12.9879C106.574 12.6952 106.402 12.4406 106.196 12.2396C105.779 11.8306 105.222 11.627 104.524 11.6287C103.842 11.6287 103.314 11.814 102.94 12.1895C102.764 12.3502 102.621 12.566 102.523 12.818C102.424 13.0699 102.374 13.3502 102.376 13.6342C102.376 14.225 102.635 14.6882 103.156 15.0287C103.814 15.4328 104.504 15.7408 105.212 15.9476C106.01 16.1793 106.798 16.4694 107.572 16.8164C108.236 17.0956 108.838 17.5923 109.321 18.261C109.765 18.897 109.986 19.8275 109.986 21.0527C110.003 21.7883 109.89 22.5188 109.657 23.186C109.424 23.8533 109.078 24.4388 108.645 24.8959C107.733 25.9174 106.494 26.4282 104.93 26.4282Z" fill="#0EAA4F"/>
</g>
<defs>
<clipPath id="clip0_5902_10978">
<rect width="164" height="33" fill="white"/>
</clipPath>
</defs>
</svg>
