<svg width="38" height="38" viewBox="0 0 38 38" fill="none" xmlns="http://www.w3.org/2000/svg">
<path d="M28.5 12.666C28.5 10.1465 27.4991 7.7301 25.7175 5.9485C23.9359 4.16691 21.5196 3.16602 19 3.16602C16.4804 3.16602 14.0641 4.16691 12.2825 5.9485C10.5009 7.7301 9.5 10.1465 9.5 12.666C9.5 23.7493 4.75 26.916 4.75 26.916H33.25C33.25 26.916 28.5 23.7493 28.5 12.666Z" stroke="black" stroke-width="2" stroke-linecap="round" stroke-linejoin="round"/>
<path d="M21.7391 33.25C21.4607 33.7299 21.0612 34.1282 20.5804 34.4051C20.0997 34.682 19.5547 34.8277 18.9999 34.8277C18.4451 34.8277 17.9001 34.682 17.4194 34.4051C16.9387 34.1282 16.5391 33.7299 16.2607 33.25" stroke="black" stroke-width="2" stroke-linecap="round" stroke-linejoin="round"/>
<circle cx="28" cy="7" r="5" fill="#0EAA4F"/>
</svg>
