<svg width="46" height="47" viewBox="0 0 46 47" fill="none" xmlns="http://www.w3.org/2000/svg">
<path d="M23 3.5625C25.6182 3.5625 28.2108 4.0782 30.6298 5.08015C33.0487 6.08211 35.2466 7.55069 37.0979 9.40206C38.9493 11.2534 40.4179 13.4513 41.4198 15.8703C42.4218 18.2892 42.9375 20.8818 42.9375 23.5C42.9375 26.1182 42.4218 28.7108 41.4198 31.1298C40.4179 33.5487 38.9493 35.7466 37.0979 37.5979C35.2466 39.4493 33.0487 40.9179 30.6297 41.9199C28.2108 42.9218 25.6182 43.4375 23 43.4375C20.3818 43.4375 17.7892 42.9218 15.3702 41.9198C12.9513 40.9179 10.7534 39.4493 8.90205 37.5979C7.05069 35.7466 5.5821 33.5487 4.58015 31.1297C3.5782 28.7108 3.0625 26.1182 3.0625 23.5C3.0625 20.8818 3.5782 18.2892 4.58016 15.8702C5.58211 13.4513 7.0507 11.2534 8.90207 9.40205C10.7534 7.55068 12.9513 6.0821 15.3703 5.08015C17.7892 4.0782 20.3818 3.5625 23 3.5625L23 3.5625Z" stroke="#F9F5FF" stroke-width="6" stroke-linecap="round" stroke-linejoin="round"/>
<path d="M23 3.5625C27.2253 3.5625 31.3413 4.90485 34.7542 7.39586" stroke="#0D9B48" stroke-width="6" stroke-linecap="round" stroke-linejoin="round"/>
</svg>
