<svg width="154" height="112" viewBox="0 0 154 112" fill="none" xmlns="http://www.w3.org/2000/svg">
<g filter="url(#filter0_d_10763_184161)">
<path d="M15.1333 8.74609H138.853V102.396C138.853 103.963 137.582 105.233 136.015 105.233H17.9709C16.4037 105.233 15.1333 103.963 15.1333 102.396V8.74609Z" fill="#B1BABF" fill-opacity="0.24"/>
<path d="M15.1335 28.6758H138.853V102.453C138.853 104.021 137.582 105.291 136.015 105.291H17.9711C16.404 105.291 15.1335 104.021 15.1335 102.453V28.6758Z" fill="#D3D9DD"/>
<rect x="66.7773" y="87.1328" width="20.4307" height="2.27008" fill="#E9ECEE"/>
<path d="M4 8.74609H147.906V28.9995C147.906 30.5667 146.636 31.8371 145.069 31.8371H6.83761C5.27044 31.8371 4 30.5667 4 28.9995V8.74609Z" fill="#B1BABF" fill-opacity="0.24"/>
<path d="M4 2.55859H148.731V29.8218C148.731 31.3889 147.461 32.6594 145.894 32.6594H6.83761C5.27044 32.6594 4 31.3889 4 29.8218V2.55859Z" fill="#BFC6CC"/>
<path fill-rule="evenodd" clip-rule="evenodd" d="M88.5023 57.9325C89.1243 56.5888 89.5145 55.1443 89.6493 53.6601C89.8676 51.2551 89.4066 48.8415 88.3182 46.692C87.2298 44.5424 85.5573 42.7424 83.4897 41.4952C81.4221 40.248 79.0417 39.6033 76.6172 39.6338C74.1926 39.6644 71.8206 40.369 69.7688 41.6681C67.7171 42.9672 66.0673 44.809 65.0058 46.9856C63.9443 49.1623 63.5134 51.5871 63.7616 53.9862C63.8974 55.2984 64.2334 56.5743 64.7526 57.7719C63.1064 60.1165 62.14 62.9732 62.14 66.0556C62.14 74.0261 68.6014 80.4875 76.5719 80.4875C84.5424 80.4875 91.0038 74.0261 91.0038 66.0556C91.0038 63.0432 90.0808 60.2464 88.5023 57.9325ZM67.506 54.8261C69.9837 52.8232 73.1377 51.6238 76.5719 51.6238C80.0912 51.6238 83.3162 52.8834 85.8208 54.9765C85.9636 54.4504 86.0609 53.9111 86.1105 53.3643C86.2692 51.6164 85.9341 49.8624 85.1431 48.3001C84.3521 46.7379 83.1366 45.4297 81.6339 44.5233C80.1313 43.6169 78.4012 43.1483 76.6392 43.1705C74.8771 43.1927 73.1532 43.7048 71.662 44.6489C70.1709 45.593 68.9719 46.9316 68.2004 48.5136C67.4289 50.0955 67.1157 51.8577 67.2961 53.6013C67.339 54.0154 67.4093 54.4245 67.506 54.8261ZM77.6453 65.7551C78.238 65.393 78.6335 64.74 78.6335 63.9946C78.6335 62.856 77.7104 61.9329 76.5718 61.9329C75.4331 61.9329 74.5101 62.856 74.5101 63.9946C74.5101 64.74 74.9057 65.3931 75.4984 65.7552C75.3943 66.2685 75.3348 66.8636 75.3348 67.498C75.3348 69.4337 75.8887 71.0029 76.5719 71.0029C77.255 71.0029 77.8089 69.4337 77.8089 67.498C77.8089 66.8635 77.7494 66.2685 77.6453 65.7551Z" fill="#E9ECEE"/>
</g>
<defs>
<filter id="filter0_d_10763_184161" x="0.288946" y="0.496897" width="152.978" height="110.977" filterUnits="userSpaceOnUse" color-interpolation-filters="sRGB">
<feFlood flood-opacity="0" result="BackgroundImageFix"/>
<feColorMatrix in="SourceAlpha" type="matrix" values="0 0 0 0 0 0 0 0 0 0 0 0 0 0 0 0 0 0 127 0" result="hardAlpha"/>
<feOffset dx="0.412339" dy="2.0617"/>
<feGaussianBlur stdDeviation="2.0617"/>
<feComposite in2="hardAlpha" operator="out"/>
<feColorMatrix type="matrix" values="0 0 0 0 0 0 0 0 0 0 0 0 0 0 0 0 0 0 0.2 0"/>
<feBlend mode="normal" in2="BackgroundImageFix" result="effect1_dropShadow_10763_184161"/>
<feBlend mode="normal" in="SourceGraphic" in2="effect1_dropShadow_10763_184161" result="shape"/>
</filter>
</defs>
</svg>
